# xmcd
#
# Track frame offsets: 
#        150
#        21120
#        44079
#        65226
#        86341
#        107507
#        129826
#        150510
#        172239
#        191748
#        211483
#        230877
#        254473
#        271414
#        291952
#
# Disc length: 4140 seconds
#
# Revision: 0
# Processed by: cddbd v1.5.2PL0 Copyright (c) Steve Scherf et al.
# Submitted via: ExactAudioCopy v0.99pb4
#
DISCID=e3102a0f
DTITLE=張學友 - 永恆的情歌
DYEAR=2008
DGENRE=Pop
TTITLE0=一千個傷心的理由
TTITLE1=吻別
TTITLE2=Linda
TTITLE3=我等到花兒也謝了
TTITLE4=每天愛你多一些
TTITLE5=永遠的笑顏
TTITLE6=你冷得像風
TTITLE7=你最珍貴
TTITLE8=藍雨
TTITLE9=偷心
TTITLE10=你知不知道
TTITLE11=回頭太難
TTITLE12=真愛
TTITLE13=祝福
TTITLE14=當我想起你
EXTD=
EXTT0=
EXTT1=
EXTT2=
EXTT3=
EXTT4=
EXTT5=
EXTT6=
EXTT7=
EXTT8=
EXTT9=
EXTT10=
EXTT11=
EXTT12=
EXTT13=
EXTT14=
PLAYORDER=
